# vtk DataFile Version 2.0
Unstructured Grid Example
ASCII
DATASET UNSTRUCTURED_GRID
POINTS   49 float
   -857.142857       0.000000    4000.000000
  -1142.857143       0.000000    4000.000000
  -1428.571429       0.000000    4000.000000
  -1714.285714       0.000000    4000.000000
  -2000.000000       0.000000    4000.000000
   -285.714286       0.000000    4000.000000
   -571.428571       0.000000    4000.000000
   -857.142857       0.000000    2500.000000
   -857.142857       0.000000    2750.000000
   -857.142857       0.000000    3000.000000
  -1142.857143       0.000000    2500.000000
  -1142.857143       0.000000    2750.000000
  -1142.857143       0.000000    3000.000000
  -1428.571429       0.000000    2500.000000
  -1428.571429       0.000000    2750.000000
  -1428.571429       0.000000    3000.000000
   -857.142857       0.000000    3250.000000
   -857.142857       0.000000    3500.000000
  -1142.857143       0.000000    3250.000000
  -1142.857143       0.000000    3500.000000
  -1428.571429       0.000000    3250.000000
  -1428.571429       0.000000    3500.000000
   -857.142857       0.000000    3750.000000
  -1142.857143       0.000000    3750.000000
  -1428.571429       0.000000    3750.000000
  -1714.285714       0.000000    2500.000000
  -1714.285714       0.000000    2750.000000
  -1714.285714       0.000000    3000.000000
  -2000.000000       0.000000    2500.000000
  -2000.000000       0.000000    2750.000000
  -2000.000000       0.000000    3000.000000
  -1714.285714       0.000000    3250.000000
  -1714.285714       0.000000    3500.000000
  -2000.000000       0.000000    3250.000000
  -2000.000000       0.000000    3500.000000
  -1714.285714       0.000000    3750.000000
  -2000.000000       0.000000    3750.000000
   -285.714286       0.000000    2500.000000
   -285.714286       0.000000    2750.000000
   -285.714286       0.000000    3000.000000
   -571.428571       0.000000    2500.000000
   -571.428571       0.000000    2750.000000
   -571.428571       0.000000    3000.000000
   -285.714286       0.000000    3250.000000
   -285.714286       0.000000    3500.000000
   -571.428571       0.000000    3250.000000
   -571.428571       0.000000    3500.000000
   -285.714286       0.000000    3750.000000
   -571.428571       0.000000    3750.000000

CELLS   36   180
    4    13    14    26    25
    4    14    15    27    26
    4    25    26    29    28
    4    26    27    30    29
    4    15    20    31    27
    4    20    21    32    31
    4    27    31    33    30
    4    31    32    34    33
    4    21    24    35    32
    4    24     2     3    35
    4    32    35    36    34
    4    35     3     4    36
    4     7     8    11    10
    4     8     9    12    11
    4    10    11    14    13
    4    11    12    15    14
    4     9    16    18    12
    4    16    17    19    18
    4    12    18    20    15
    4    18    19    21    20
    4    17    22    23    19
    4    22     0     1    23
    4    19    23    24    21
    4    23     1     2    24
    4    37    38    41    40
    4    38    39    42    41
    4    40    41     8     7
    4    41    42     9     8
    4    39    43    45    42
    4    43    44    46    45
    4    42    45    16     9
    4    45    46    17    16
    4    44    47    48    46
    4    47     5     6    48
    4    46    48    22    17
    4    48     6     0    22

CELL_TYPES   36
9
9
9
9
9
9
9
9
9
9
9
9
9
9
9
9
9
9
9
9
9
9
9
9
9
9
9
9
9
9
9
9
9
9
9
9

POINT_DATA    49
VECTORS slip float
-0.500000E+01  0.000000E+00  0.000000E+00
-0.500000E+01  0.000000E+00  0.000000E+00
-0.500000E+01  0.000000E+00  0.000000E+00
-0.500000E+01  0.000000E+00  0.000000E+00
-0.500000E+01  0.000000E+00  0.000000E+00
-0.500000E+01  0.000000E+00  0.000000E+00
-0.500000E+01  0.000000E+00  0.000000E+00
-0.500000E+01  0.000000E+00  0.000000E+00
-0.500000E+01  0.000000E+00  0.000000E+00
-0.500000E+01  0.000000E+00  0.000000E+00
-0.500000E+01  0.000000E+00  0.000000E+00
-0.500000E+01  0.000000E+00  0.000000E+00
-0.500000E+01  0.000000E+00  0.000000E+00
-0.500000E+01  0.000000E+00  0.000000E+00
-0.500000E+01  0.000000E+00  0.000000E+00
-0.500000E+01  0.000000E+00  0.000000E+00
-0.500000E+01  0.000000E+00  0.000000E+00
-0.500000E+01  0.000000E+00  0.000000E+00
-0.500000E+01  0.000000E+00  0.000000E+00
-0.500000E+01  0.000000E+00  0.000000E+00
-0.500000E+01  0.000000E+00  0.000000E+00
-0.500000E+01  0.000000E+00  0.000000E+00
-0.500000E+01  0.000000E+00  0.000000E+00
-0.500000E+01  0.000000E+00  0.000000E+00
-0.500000E+01  0.000000E+00  0.000000E+00
-0.500000E+01  0.000000E+00  0.000000E+00
-0.500000E+01  0.000000E+00  0.000000E+00
-0.500000E+01  0.000000E+00  0.000000E+00
-0.500000E+01  0.000000E+00  0.000000E+00
-0.500000E+01  0.000000E+00  0.000000E+00
-0.500000E+01  0.000000E+00  0.000000E+00
-0.500000E+01  0.000000E+00  0.000000E+00
-0.500000E+01  0.000000E+00  0.000000E+00
-0.500000E+01  0.000000E+00  0.000000E+00
-0.500000E+01  0.000000E+00  0.000000E+00
-0.500000E+01  0.000000E+00  0.000000E+00
-0.500000E+01  0.000000E+00  0.000000E+00
-0.500000E+01  0.000000E+00  0.000000E+00
-0.500000E+01  0.000000E+00  0.000000E+00
-0.500000E+01  0.000000E+00  0.000000E+00
-0.500000E+01  0.000000E+00  0.000000E+00
-0.500000E+01  0.000000E+00  0.000000E+00
-0.500000E+01  0.000000E+00  0.000000E+00
-0.500000E+01  0.000000E+00  0.000000E+00
-0.500000E+01  0.000000E+00  0.000000E+00
-0.500000E+01  0.000000E+00  0.000000E+00
-0.500000E+01  0.000000E+00  0.000000E+00
-0.500000E+01  0.000000E+00  0.000000E+00
-0.500000E+01  0.000000E+00  0.000000E+00
