# vtk DataFile Version 2.0
Unstructured Grid Example
ASCII
DATASET UNSTRUCTURED_GRID
POINTS   35 float
   -857.142857       0.000000    4000.000000
  -1142.857143       0.000000    4000.000000
  -1428.571429       0.000000    4000.000000
  -1714.285714       0.000000    4000.000000
  -2000.000000       0.000000    4000.000000
   -857.142857       0.000000    2500.000000
   -857.142857       0.000000    2750.000000
   -857.142857       0.000000    3000.000000
  -1142.857143       0.000000    2500.000000
  -1142.857143       0.000000    2750.000000
  -1142.857143       0.000000    3000.000000
  -1428.571429       0.000000    2500.000000
  -1428.571429       0.000000    2750.000000
  -1428.571429       0.000000    3000.000000
   -857.142857       0.000000    3250.000000
   -857.142857       0.000000    3500.000000
  -1142.857143       0.000000    3250.000000
  -1142.857143       0.000000    3500.000000
  -1428.571429       0.000000    3250.000000
  -1428.571429       0.000000    3500.000000
   -857.142857       0.000000    3750.000000
  -1142.857143       0.000000    3750.000000
  -1428.571429       0.000000    3750.000000
  -1714.285714       0.000000    2500.000000
  -1714.285714       0.000000    2750.000000
  -1714.285714       0.000000    3000.000000
  -2000.000000       0.000000    2500.000000
  -2000.000000       0.000000    2750.000000
  -2000.000000       0.000000    3000.000000
  -1714.285714       0.000000    3250.000000
  -1714.285714       0.000000    3500.000000
  -2000.000000       0.000000    3250.000000
  -2000.000000       0.000000    3500.000000
  -1714.285714       0.000000    3750.000000
  -2000.000000       0.000000    3750.000000

CELLS   24   120
    4    11    12    24    23
    4    12    13    25    24
    4    23    24    27    26
    4    24    25    28    27
    4    13    18    29    25
    4    18    19    30    29
    4    25    29    31    28
    4    29    30    32    31
    4    19    22    33    30
    4    22     2     3    33
    4    30    33    34    32
    4    33     3     4    34
    4     5     6     9     8
    4     6     7    10     9
    4     8     9    12    11
    4     9    10    13    12
    4     7    14    16    10
    4    14    15    17    16
    4    10    16    18    13
    4    16    17    19    18
    4    15    20    21    17
    4    20     0     1    21
    4    17    21    22    19
    4    21     1     2    22

CELL_TYPES   24
9
9
9
9
9
9
9
9
9
9
9
9
9
9
9
9
9
9
9
9
9
9
9
9

POINT_DATA    35
VECTORS slip float
-0.500000E+01  0.000000E+00  0.000000E+00
-0.500000E+01  0.000000E+00  0.000000E+00
-0.500000E+01  0.000000E+00  0.000000E+00
-0.500000E+01  0.000000E+00  0.000000E+00
-0.500000E+01  0.000000E+00  0.000000E+00
-0.500000E+01  0.000000E+00  0.000000E+00
-0.500000E+01  0.000000E+00  0.000000E+00
-0.500000E+01  0.000000E+00  0.000000E+00
-0.500000E+01  0.000000E+00  0.000000E+00
-0.500000E+01  0.000000E+00  0.000000E+00
-0.500000E+01  0.000000E+00  0.000000E+00
-0.500000E+01  0.000000E+00  0.000000E+00
-0.500000E+01  0.000000E+00  0.000000E+00
-0.500000E+01  0.000000E+00  0.000000E+00
-0.500000E+01  0.000000E+00  0.000000E+00
-0.500000E+01  0.000000E+00  0.000000E+00
-0.500000E+01  0.000000E+00  0.000000E+00
-0.500000E+01  0.000000E+00  0.000000E+00
-0.500000E+01  0.000000E+00  0.000000E+00
-0.500000E+01  0.000000E+00  0.000000E+00
-0.500000E+01  0.000000E+00  0.000000E+00
-0.500000E+01  0.000000E+00  0.000000E+00
-0.500000E+01  0.000000E+00  0.000000E+00
-0.500000E+01  0.000000E+00  0.000000E+00
-0.500000E+01  0.000000E+00  0.000000E+00
-0.500000E+01  0.000000E+00  0.000000E+00
-0.500000E+01  0.000000E+00  0.000000E+00
-0.500000E+01  0.000000E+00  0.000000E+00
-0.500000E+01  0.000000E+00  0.000000E+00
-0.500000E+01  0.000000E+00  0.000000E+00
-0.500000E+01  0.000000E+00  0.000000E+00
-0.500000E+01  0.000000E+00  0.000000E+00
-0.500000E+01  0.000000E+00  0.000000E+00
-0.500000E+01  0.000000E+00  0.000000E+00
-0.500000E+01  0.000000E+00  0.000000E+00
