# vtk DataFile Version 2.0
Unstructured Grid Example
ASCII
DATASET UNSTRUCTURED_GRID
POINTS   21 float
  -1428.571429       0.000000    4000.000000
  -1714.285714       0.000000    4000.000000
  -2000.000000       0.000000    4000.000000
  -1428.571429       0.000000    2500.000000
  -1428.571429       0.000000    2750.000000
  -1428.571429       0.000000    3000.000000
  -1428.571429       0.000000    3250.000000
  -1428.571429       0.000000    3500.000000
  -1428.571429       0.000000    3750.000000
  -1714.285714       0.000000    2500.000000
  -1714.285714       0.000000    2750.000000
  -1714.285714       0.000000    3000.000000
  -2000.000000       0.000000    2500.000000
  -2000.000000       0.000000    2750.000000
  -2000.000000       0.000000    3000.000000
  -1714.285714       0.000000    3250.000000
  -1714.285714       0.000000    3500.000000
  -2000.000000       0.000000    3250.000000
  -2000.000000       0.000000    3500.000000
  -1714.285714       0.000000    3750.000000
  -2000.000000       0.000000    3750.000000
 
CELLS   12    60
    4     3     4    10     9
    4     4     5    11    10
    4     9    10    13    12
    4    10    11    14    13
    4     5     6    15    11
    4     6     7    16    15
    4    11    15    17    14
    4    15    16    18    17
    4     7     8    19    16
    4     8     0     1    19
    4    16    19    20    18
    4    19     1     2    20
 
CELL_TYPES   12
9
9
9
9
9
9
9
9
9
9
9
9
 
POINT_DATA    21
VECTORS slip float
-0.500000E+01  0.000000E+00  0.000000E+00
-0.500000E+01  0.000000E+00  0.000000E+00
-0.500000E+01  0.000000E+00  0.000000E+00
-0.500000E+01  0.000000E+00  0.000000E+00
-0.500000E+01  0.000000E+00  0.000000E+00
-0.500000E+01  0.000000E+00  0.000000E+00
-0.500000E+01  0.000000E+00  0.000000E+00
-0.500000E+01  0.000000E+00  0.000000E+00
-0.500000E+01  0.000000E+00  0.000000E+00
-0.500000E+01  0.000000E+00  0.000000E+00
-0.500000E+01  0.000000E+00  0.000000E+00
-0.500000E+01  0.000000E+00  0.000000E+00
-0.500000E+01  0.000000E+00  0.000000E+00
-0.500000E+01  0.000000E+00  0.000000E+00
-0.500000E+01  0.000000E+00  0.000000E+00
-0.500000E+01  0.000000E+00  0.000000E+00
-0.500000E+01  0.000000E+00  0.000000E+00
-0.500000E+01  0.000000E+00  0.000000E+00
-0.500000E+01  0.000000E+00  0.000000E+00
-0.500000E+01  0.000000E+00  0.000000E+00
-0.500000E+01  0.000000E+00  0.000000E+00
