# vtk DataFile Version 2.0
Unstructured Grid Example
ASCII
DATASET UNSTRUCTURED_GRID
POINTS   63 float
   2000.000000       0.000000    4000.000000
   2000.000000       0.000000    2500.000000
   2000.000000       0.000000    2750.000000
   2000.000000       0.000000    3000.000000
   2000.000000       0.000000    3250.000000
   2000.000000       0.000000    3500.000000
   2000.000000       0.000000    3750.000000
   1714.285714       0.000000    4000.000000
   1428.571429       0.000000    4000.000000
   1142.857143       0.000000    4000.000000
    857.142857       0.000000    4000.000000
    571.428571       0.000000    4000.000000
    285.714286       0.000000    4000.000000
      0.000000       0.000000    4000.000000
   -285.714286       0.000000    4000.000000
   1714.285714       0.000000    2500.000000
   1714.285714       0.000000    2750.000000
   1714.285714       0.000000    3000.000000
   1428.571429       0.000000    2500.000000
   1428.571429       0.000000    2750.000000
   1428.571429       0.000000    3000.000000
   1714.285714       0.000000    3250.000000
   1714.285714       0.000000    3500.000000
   1428.571429       0.000000    3250.000000
   1428.571429       0.000000    3500.000000
   1714.285714       0.000000    3750.000000
   1428.571429       0.000000    3750.000000
   1142.857143       0.000000    2500.000000
   1142.857143       0.000000    2750.000000
   1142.857143       0.000000    3000.000000
    857.142857       0.000000    2500.000000
    857.142857       0.000000    2750.000000
    857.142857       0.000000    3000.000000
   1142.857143       0.000000    3250.000000
   1142.857143       0.000000    3500.000000
    857.142857       0.000000    3250.000000
    857.142857       0.000000    3500.000000
   1142.857143       0.000000    3750.000000
    857.142857       0.000000    3750.000000
    571.428571       0.000000    2500.000000
    571.428571       0.000000    2750.000000
    571.428571       0.000000    3000.000000
    285.714286       0.000000    2500.000000
    285.714286       0.000000    2750.000000
    285.714286       0.000000    3000.000000
    571.428571       0.000000    3250.000000
    571.428571       0.000000    3500.000000
    285.714286       0.000000    3250.000000
    285.714286       0.000000    3500.000000
    571.428571       0.000000    3750.000000
    285.714286       0.000000    3750.000000
      0.000000       0.000000    2500.000000
     -0.000000       0.000000    2750.000000
     -0.000000       0.000000    3000.000000
   -285.714286       0.000000    2500.000000
   -285.714286       0.000000    2750.000000
   -285.714286       0.000000    3000.000000
     -0.000000       0.000000    3250.000000
      0.000000       0.000000    3500.000000
   -285.714286       0.000000    3250.000000
   -285.714286       0.000000    3500.000000
      0.000000       0.000000    3750.000000
   -285.714286       0.000000    3750.000000
 
CELLS   48   240
    4    42    43    52    51
    4    43    44    53    52
    4    51    52    55    54
    4    52    53    56    55
    4    44    47    57    53
    4    47    48    58    57
    4    53    57    59    56
    4    57    58    60    59
    4    48    50    61    58
    4    50    12    13    61
    4    58    61    62    60
    4    61    13    14    62
    4    30    31    40    39
    4    31    32    41    40
    4    39    40    43    42
    4    40    41    44    43
    4    32    35    45    41
    4    35    36    46    45
    4    41    45    47    44
    4    45    46    48    47
    4    36    38    49    46
    4    38    10    11    49
    4    46    49    50    48
    4    49    11    12    50
    4    18    19    28    27
    4    19    20    29    28
    4    27    28    31    30
    4    28    29    32    31
    4    20    23    33    29
    4    23    24    34    33
    4    29    33    35    32
    4    33    34    36    35
    4    24    26    37    34
    4    26     8     9    37
    4    34    37    38    36
    4    37     9    10    38
    4     1     2    16    15
    4     2     3    17    16
    4    15    16    19    18
    4    16    17    20    19
    4     3     4    21    17
    4     4     5    22    21
    4    17    21    23    20
    4    21    22    24    23
    4     5     6    25    22
    4     6     0     7    25
    4    22    25    26    24
    4    25     7     8    26
 
CELL_TYPES   48
9
9
9
9
9
9
9
9
9
9
9
9
9
9
9
9
9
9
9
9
9
9
9
9
9
9
9
9
9
9
9
9
9
9
9
9
9
9
9
9
9
9
9
9
9
9
9
9
 
POINT_DATA    63
VECTORS slip float
-0.500000E+01  0.000000E+00  0.000000E+00
-0.500000E+01  0.000000E+00  0.000000E+00
-0.500000E+01  0.000000E+00  0.000000E+00
-0.500000E+01  0.000000E+00  0.000000E+00
-0.500000E+01  0.000000E+00  0.000000E+00
-0.500000E+01  0.000000E+00  0.000000E+00
-0.500000E+01  0.000000E+00  0.000000E+00
-0.500000E+01  0.000000E+00  0.000000E+00
-0.500000E+01  0.000000E+00  0.000000E+00
-0.500000E+01  0.000000E+00  0.000000E+00
-0.500000E+01  0.000000E+00  0.000000E+00
-0.500000E+01  0.000000E+00  0.000000E+00
-0.500000E+01  0.000000E+00  0.000000E+00
-0.500000E+01  0.000000E+00  0.000000E+00
-0.500000E+01  0.000000E+00  0.000000E+00
-0.500000E+01  0.000000E+00  0.000000E+00
-0.500000E+01  0.000000E+00  0.000000E+00
-0.500000E+01  0.000000E+00  0.000000E+00
-0.500000E+01  0.000000E+00  0.000000E+00
-0.500000E+01  0.000000E+00  0.000000E+00
-0.500000E+01  0.000000E+00  0.000000E+00
-0.500000E+01  0.000000E+00  0.000000E+00
-0.500000E+01  0.000000E+00  0.000000E+00
-0.500000E+01  0.000000E+00  0.000000E+00
-0.500000E+01  0.000000E+00  0.000000E+00
-0.500000E+01  0.000000E+00  0.000000E+00
-0.500000E+01  0.000000E+00  0.000000E+00
-0.500000E+01  0.000000E+00  0.000000E+00
-0.500000E+01  0.000000E+00  0.000000E+00
-0.500000E+01  0.000000E+00  0.000000E+00
-0.500000E+01  0.000000E+00  0.000000E+00
-0.500000E+01  0.000000E+00  0.000000E+00
-0.500000E+01  0.000000E+00  0.000000E+00
-0.500000E+01  0.000000E+00  0.000000E+00
-0.500000E+01  0.000000E+00  0.000000E+00
-0.500000E+01  0.000000E+00  0.000000E+00
-0.500000E+01  0.000000E+00  0.000000E+00
-0.500000E+01  0.000000E+00  0.000000E+00
-0.500000E+01  0.000000E+00  0.000000E+00
-0.500000E+01  0.000000E+00  0.000000E+00
-0.500000E+01  0.000000E+00  0.000000E+00
-0.500000E+01  0.000000E+00  0.000000E+00
-0.500000E+01  0.000000E+00  0.000000E+00
-0.500000E+01  0.000000E+00  0.000000E+00
-0.500000E+01  0.000000E+00  0.000000E+00
-0.500000E+01  0.000000E+00  0.000000E+00
-0.500000E+01  0.000000E+00  0.000000E+00
-0.500000E+01  0.000000E+00  0.000000E+00
-0.500000E+01  0.000000E+00  0.000000E+00
-0.500000E+01  0.000000E+00  0.000000E+00
-0.500000E+01  0.000000E+00  0.000000E+00
-0.500000E+01  0.000000E+00  0.000000E+00
-0.500000E+01  0.000000E+00  0.000000E+00
-0.500000E+01  0.000000E+00  0.000000E+00
-0.500000E+01  0.000000E+00  0.000000E+00
-0.500000E+01  0.000000E+00  0.000000E+00
-0.500000E+01  0.000000E+00  0.000000E+00
-0.500000E+01  0.000000E+00  0.000000E+00
-0.500000E+01  0.000000E+00  0.000000E+00
-0.500000E+01  0.000000E+00  0.000000E+00
-0.500000E+01  0.000000E+00  0.000000E+00
-0.500000E+01  0.000000E+00  0.000000E+00
-0.500000E+01  0.000000E+00  0.000000E+00
