# vtk DataFile Version 2.0
Unstructured Grid Example
ASCII
DATASET UNSTRUCTURED_GRID
POINTS   77 float
   2000.000000       0.000000    4000.000000
   2000.000000       0.000000    2500.000000
   2000.000000       0.000000    2750.000000
   2000.000000       0.000000    3000.000000
   2000.000000       0.000000    3250.000000
   2000.000000       0.000000    3500.000000
   2000.000000       0.000000    3750.000000
   1714.285714       0.000000    4000.000000
   1428.571429       0.000000    4000.000000
   1142.857143       0.000000    4000.000000
    857.142857       0.000000    4000.000000
    571.428571       0.000000    4000.000000
    285.714286       0.000000    4000.000000
      0.000000       0.000000    4000.000000
   -285.714286       0.000000    4000.000000
   -571.428571       0.000000    4000.000000
   -857.142857       0.000000    4000.000000
   1714.285714       0.000000    2500.000000
   1714.285714       0.000000    2750.000000
   1714.285714       0.000000    3000.000000
   1428.571429       0.000000    2500.000000
   1428.571429       0.000000    2750.000000
   1428.571429       0.000000    3000.000000
   1714.285714       0.000000    3250.000000
   1714.285714       0.000000    3500.000000
   1428.571429       0.000000    3250.000000
   1428.571429       0.000000    3500.000000
   1714.285714       0.000000    3750.000000
   1428.571429       0.000000    3750.000000
   1142.857143       0.000000    2500.000000
   1142.857143       0.000000    2750.000000
   1142.857143       0.000000    3000.000000
    857.142857       0.000000    2500.000000
    857.142857       0.000000    2750.000000
    857.142857       0.000000    3000.000000
   1142.857143       0.000000    3250.000000
   1142.857143       0.000000    3500.000000
    857.142857       0.000000    3250.000000
    857.142857       0.000000    3500.000000
   1142.857143       0.000000    3750.000000
    857.142857       0.000000    3750.000000
    571.428571       0.000000    2500.000000
    571.428571       0.000000    2750.000000
    571.428571       0.000000    3000.000000
    285.714286       0.000000    2500.000000
    285.714286       0.000000    2750.000000
    285.714286       0.000000    3000.000000
    571.428571       0.000000    3250.000000
    571.428571       0.000000    3500.000000
    285.714286       0.000000    3250.000000
    285.714286       0.000000    3500.000000
    571.428571       0.000000    3750.000000
    285.714286       0.000000    3750.000000
      0.000000       0.000000    2500.000000
     -0.000000       0.000000    2750.000000
     -0.000000       0.000000    3000.000000
   -285.714286       0.000000    2500.000000
   -285.714286       0.000000    2750.000000
   -285.714286       0.000000    3000.000000
     -0.000000       0.000000    3250.000000
      0.000000       0.000000    3500.000000
   -285.714286       0.000000    3250.000000
   -285.714286       0.000000    3500.000000
      0.000000       0.000000    3750.000000
   -285.714286       0.000000    3750.000000
   -571.428571       0.000000    2500.000000
   -571.428571       0.000000    2750.000000
   -571.428571       0.000000    3000.000000
   -857.142857       0.000000    2500.000000
   -857.142857       0.000000    2750.000000
   -857.142857       0.000000    3000.000000
   -571.428571       0.000000    3250.000000
   -571.428571       0.000000    3500.000000
   -857.142857       0.000000    3250.000000
   -857.142857       0.000000    3500.000000
   -571.428571       0.000000    3750.000000
   -857.142857       0.000000    3750.000000
 
CELLS   60   300
    4    56    57    66    65
    4    57    58    67    66
    4    65    66    69    68
    4    66    67    70    69
    4    58    61    71    67
    4    61    62    72    71
    4    67    71    73    70
    4    71    72    74    73
    4    62    64    75    72
    4    64    14    15    75
    4    72    75    76    74
    4    75    15    16    76
    4    44    45    54    53
    4    45    46    55    54
    4    53    54    57    56
    4    54    55    58    57
    4    46    49    59    55
    4    49    50    60    59
    4    55    59    61    58
    4    59    60    62    61
    4    50    52    63    60
    4    52    12    13    63
    4    60    63    64    62
    4    63    13    14    64
    4    32    33    42    41
    4    33    34    43    42
    4    41    42    45    44
    4    42    43    46    45
    4    34    37    47    43
    4    37    38    48    47
    4    43    47    49    46
    4    47    48    50    49
    4    38    40    51    48
    4    40    10    11    51
    4    48    51    52    50
    4    51    11    12    52
    4    20    21    30    29
    4    21    22    31    30
    4    29    30    33    32
    4    30    31    34    33
    4    22    25    35    31
    4    25    26    36    35
    4    31    35    37    34
    4    35    36    38    37
    4    26    28    39    36
    4    28     8     9    39
    4    36    39    40    38
    4    39     9    10    40
    4     1     2    18    17
    4     2     3    19    18
    4    17    18    21    20
    4    18    19    22    21
    4     3     4    23    19
    4     4     5    24    23
    4    19    23    25    22
    4    23    24    26    25
    4     5     6    27    24
    4     6     0     7    27
    4    24    27    28    26
    4    27     7     8    28
 
CELL_TYPES   60
9
9
9
9
9
9
9
9
9
9
9
9
9
9
9
9
9
9
9
9
9
9
9
9
9
9
9
9
9
9
9
9
9
9
9
9
9
9
9
9
9
9
9
9
9
9
9
9
9
9
9
9
9
9
9
9
9
9
9
9
 
POINT_DATA    77
VECTORS slip float
-0.500000E+01  0.000000E+00  0.000000E+00
-0.500000E+01  0.000000E+00  0.000000E+00
-0.500000E+01  0.000000E+00  0.000000E+00
-0.500000E+01  0.000000E+00  0.000000E+00
-0.500000E+01  0.000000E+00  0.000000E+00
-0.500000E+01  0.000000E+00  0.000000E+00
-0.500000E+01  0.000000E+00  0.000000E+00
-0.500000E+01  0.000000E+00  0.000000E+00
-0.500000E+01  0.000000E+00  0.000000E+00
-0.500000E+01  0.000000E+00  0.000000E+00
-0.500000E+01  0.000000E+00  0.000000E+00
-0.500000E+01  0.000000E+00  0.000000E+00
-0.500000E+01  0.000000E+00  0.000000E+00
-0.500000E+01  0.000000E+00  0.000000E+00
-0.500000E+01  0.000000E+00  0.000000E+00
-0.500000E+01  0.000000E+00  0.000000E+00
-0.500000E+01  0.000000E+00  0.000000E+00
-0.500000E+01  0.000000E+00  0.000000E+00
-0.500000E+01  0.000000E+00  0.000000E+00
-0.500000E+01  0.000000E+00  0.000000E+00
-0.500000E+01  0.000000E+00  0.000000E+00
-0.500000E+01  0.000000E+00  0.000000E+00
-0.500000E+01  0.000000E+00  0.000000E+00
-0.500000E+01  0.000000E+00  0.000000E+00
-0.500000E+01  0.000000E+00  0.000000E+00
-0.500000E+01  0.000000E+00  0.000000E+00
-0.500000E+01  0.000000E+00  0.000000E+00
-0.500000E+01  0.000000E+00  0.000000E+00
-0.500000E+01  0.000000E+00  0.000000E+00
-0.500000E+01  0.000000E+00  0.000000E+00
-0.500000E+01  0.000000E+00  0.000000E+00
-0.500000E+01  0.000000E+00  0.000000E+00
-0.500000E+01  0.000000E+00  0.000000E+00
-0.500000E+01  0.000000E+00  0.000000E+00
-0.500000E+01  0.000000E+00  0.000000E+00
-0.500000E+01  0.000000E+00  0.000000E+00
-0.500000E+01  0.000000E+00  0.000000E+00
-0.500000E+01  0.000000E+00  0.000000E+00
-0.500000E+01  0.000000E+00  0.000000E+00
-0.500000E+01  0.000000E+00  0.000000E+00
-0.500000E+01  0.000000E+00  0.000000E+00
-0.500000E+01  0.000000E+00  0.000000E+00
-0.500000E+01  0.000000E+00  0.000000E+00
-0.500000E+01  0.000000E+00  0.000000E+00
-0.500000E+01  0.000000E+00  0.000000E+00
-0.500000E+01  0.000000E+00  0.000000E+00
-0.500000E+01  0.000000E+00  0.000000E+00
-0.500000E+01  0.000000E+00  0.000000E+00
-0.500000E+01  0.000000E+00  0.000000E+00
-0.500000E+01  0.000000E+00  0.000000E+00
-0.500000E+01  0.000000E+00  0.000000E+00
-0.500000E+01  0.000000E+00  0.000000E+00
-0.500000E+01  0.000000E+00  0.000000E+00
-0.500000E+01  0.000000E+00  0.000000E+00
-0.500000E+01  0.000000E+00  0.000000E+00
-0.500000E+01  0.000000E+00  0.000000E+00
-0.500000E+01  0.000000E+00  0.000000E+00
-0.500000E+01  0.000000E+00  0.000000E+00
-0.500000E+01  0.000000E+00  0.000000E+00
-0.500000E+01  0.000000E+00  0.000000E+00
-0.500000E+01  0.000000E+00  0.000000E+00
-0.500000E+01  0.000000E+00  0.000000E+00
-0.500000E+01  0.000000E+00  0.000000E+00
-0.500000E+01  0.000000E+00  0.000000E+00
-0.500000E+01  0.000000E+00  0.000000E+00
-0.500000E+01  0.000000E+00  0.000000E+00
-0.500000E+01  0.000000E+00  0.000000E+00
-0.500000E+01  0.000000E+00  0.000000E+00
-0.500000E+01  0.000000E+00  0.000000E+00
-0.500000E+01  0.000000E+00  0.000000E+00
-0.500000E+01  0.000000E+00  0.000000E+00
-0.500000E+01  0.000000E+00  0.000000E+00
-0.500000E+01  0.000000E+00  0.000000E+00
-0.500000E+01  0.000000E+00  0.000000E+00
-0.500000E+01  0.000000E+00  0.000000E+00
-0.500000E+01  0.000000E+00  0.000000E+00
-0.500000E+01  0.000000E+00  0.000000E+00
