# vtk DataFile Version 2.0
Unstructured Grid Example
ASCII
DATASET UNSTRUCTURED_GRID
POINTS  105 float
   2000.000000       0.000000    4000.000000
   2000.000000       0.000000    2500.000000
   2000.000000       0.000000    2750.000000
   2000.000000       0.000000    3000.000000
   2000.000000       0.000000    3250.000000
   2000.000000       0.000000    3500.000000
   2000.000000       0.000000    3750.000000
   1714.285714       0.000000    4000.000000
   1428.571429       0.000000    4000.000000
   1142.857143       0.000000    4000.000000
    857.142857       0.000000    4000.000000
    571.428571       0.000000    4000.000000
    285.714286       0.000000    4000.000000
      0.000000       0.000000    4000.000000
   -285.714286       0.000000    4000.000000
   -571.428571       0.000000    4000.000000
   -857.142857       0.000000    4000.000000
  -1142.857143       0.000000    4000.000000
  -1428.571429       0.000000    4000.000000
  -1714.285714       0.000000    4000.000000
  -2000.000000       0.000000    4000.000000
   1714.285714       0.000000    2500.000000
   1714.285714       0.000000    2750.000000
   1714.285714       0.000000    3000.000000
   1428.571429       0.000000    2500.000000
   1428.571429       0.000000    2750.000000
   1428.571429       0.000000    3000.000000
   1714.285714       0.000000    3250.000000
   1714.285714       0.000000    3500.000000
   1428.571429       0.000000    3250.000000
   1428.571429       0.000000    3500.000000
   1714.285714       0.000000    3750.000000
   1428.571429       0.000000    3750.000000
   1142.857143       0.000000    2500.000000
   1142.857143       0.000000    2750.000000
   1142.857143       0.000000    3000.000000
    857.142857       0.000000    2500.000000
    857.142857       0.000000    2750.000000
    857.142857       0.000000    3000.000000
   1142.857143       0.000000    3250.000000
   1142.857143       0.000000    3500.000000
    857.142857       0.000000    3250.000000
    857.142857       0.000000    3500.000000
   1142.857143       0.000000    3750.000000
    857.142857       0.000000    3750.000000
    571.428571       0.000000    2500.000000
    571.428571       0.000000    2750.000000
    571.428571       0.000000    3000.000000
    285.714286       0.000000    2500.000000
    285.714286       0.000000    2750.000000
    285.714286       0.000000    3000.000000
    571.428571       0.000000    3250.000000
    571.428571       0.000000    3500.000000
    285.714286       0.000000    3250.000000
    285.714286       0.000000    3500.000000
    571.428571       0.000000    3750.000000
    285.714286       0.000000    3750.000000
      0.000000       0.000000    2500.000000
     -0.000000       0.000000    2750.000000
     -0.000000       0.000000    3000.000000
   -285.714286       0.000000    2500.000000
   -285.714286       0.000000    2750.000000
   -285.714286       0.000000    3000.000000
     -0.000000       0.000000    3250.000000
      0.000000       0.000000    3500.000000
   -285.714286       0.000000    3250.000000
   -285.714286       0.000000    3500.000000
      0.000000       0.000000    3750.000000
   -285.714286       0.000000    3750.000000
   -571.428571       0.000000    2500.000000
   -571.428571       0.000000    2750.000000
   -571.428571       0.000000    3000.000000
   -857.142857       0.000000    2500.000000
   -857.142857       0.000000    2750.000000
   -857.142857       0.000000    3000.000000
   -571.428571       0.000000    3250.000000
   -571.428571       0.000000    3500.000000
   -857.142857       0.000000    3250.000000
   -857.142857       0.000000    3500.000000
   -571.428571       0.000000    3750.000000
   -857.142857       0.000000    3750.000000
  -1142.857143       0.000000    2500.000000
  -1142.857143       0.000000    2750.000000
  -1142.857143       0.000000    3000.000000
  -1428.571429       0.000000    2500.000000
  -1428.571429       0.000000    2750.000000
  -1428.571429       0.000000    3000.000000
  -1142.857143       0.000000    3250.000000
  -1142.857143       0.000000    3500.000000
  -1428.571429       0.000000    3250.000000
  -1428.571429       0.000000    3500.000000
  -1142.857143       0.000000    3750.000000
  -1428.571429       0.000000    3750.000000
  -1714.285714       0.000000    2500.000000
  -1714.285714       0.000000    2750.000000
  -1714.285714       0.000000    3000.000000
  -2000.000000       0.000000    2500.000000
  -2000.000000       0.000000    2750.000000
  -2000.000000       0.000000    3000.000000
  -1714.285714       0.000000    3250.000000
  -1714.285714       0.000000    3500.000000
  -2000.000000       0.000000    3250.000000
  -2000.000000       0.000000    3500.000000
  -1714.285714       0.000000    3750.000000
  -2000.000000       0.000000    3750.000000

CELLS   84   420
    4    84    85    94    93
    4    85    86    95    94
    4    93    94    97    96
    4    94    95    98    97
    4    86    89    99    95
    4    89    90   100    99
    4    95    99   101    98
    4    99   100   102   101
    4    90    92   103   100
    4    92    18    19   103
    4   100   103   104   102
    4   103    19    20   104
    4    72    73    82    81
    4    73    74    83    82
    4    81    82    85    84
    4    82    83    86    85
    4    74    77    87    83
    4    77    78    88    87
    4    83    87    89    86
    4    87    88    90    89
    4    78    80    91    88
    4    80    16    17    91
    4    88    91    92    90
    4    91    17    18    92
    4    60    61    70    69
    4    61    62    71    70
    4    69    70    73    72
    4    70    71    74    73
    4    62    65    75    71
    4    65    66    76    75
    4    71    75    77    74
    4    75    76    78    77
    4    66    68    79    76
    4    68    14    15    79
    4    76    79    80    78
    4    79    15    16    80
    4    48    49    58    57
    4    49    50    59    58
    4    57    58    61    60
    4    58    59    62    61
    4    50    53    63    59
    4    53    54    64    63
    4    59    63    65    62
    4    63    64    66    65
    4    54    56    67    64
    4    56    12    13    67
    4    64    67    68    66
    4    67    13    14    68
    4    36    37    46    45
    4    37    38    47    46
    4    45    46    49    48
    4    46    47    50    49
    4    38    41    51    47
    4    41    42    52    51
    4    47    51    53    50
    4    51    52    54    53
    4    42    44    55    52
    4    44    10    11    55
    4    52    55    56    54
    4    55    11    12    56
    4    24    25    34    33
    4    25    26    35    34
    4    33    34    37    36
    4    34    35    38    37
    4    26    29    39    35
    4    29    30    40    39
    4    35    39    41    38
    4    39    40    42    41
    4    30    32    43    40
    4    32     8     9    43
    4    40    43    44    42
    4    43     9    10    44
    4     1     2    22    21
    4     2     3    23    22
    4    21    22    25    24
    4    22    23    26    25
    4     3     4    27    23
    4     4     5    28    27
    4    23    27    29    26
    4    27    28    30    29
    4     5     6    31    28
    4     6     0     7    31
    4    28    31    32    30
    4    31     7     8    32

CELL_TYPES   84
9
9
9
9
9
9
9
9
9
9
9
9
9
9
9
9
9
9
9
9
9
9
9
9
9
9
9
9
9
9
9
9
9
9
9
9
9
9
9
9
9
9
9
9
9
9
9
9
9
9
9
9
9
9
9
9
9
9
9
9
9
9
9
9
9
9
9
9
9
9
9
9
9
9
9
9
9
9
9
9
9
9
9
9

POINT_DATA   105
VECTORS slip float
-0.500000E+01  0.000000E+00  0.000000E+00
-0.500000E+01  0.000000E+00  0.000000E+00
-0.500000E+01  0.000000E+00  0.000000E+00
-0.500000E+01  0.000000E+00  0.000000E+00
-0.500000E+01  0.000000E+00  0.000000E+00
-0.500000E+01  0.000000E+00  0.000000E+00
-0.500000E+01  0.000000E+00  0.000000E+00
-0.500000E+01  0.000000E+00  0.000000E+00
-0.500000E+01  0.000000E+00  0.000000E+00
-0.500000E+01  0.000000E+00  0.000000E+00
-0.500000E+01  0.000000E+00  0.000000E+00
-0.500000E+01  0.000000E+00  0.000000E+00
-0.500000E+01  0.000000E+00  0.000000E+00
-0.500000E+01  0.000000E+00  0.000000E+00
-0.500000E+01  0.000000E+00  0.000000E+00
-0.500000E+01  0.000000E+00  0.000000E+00
-0.500000E+01  0.000000E+00  0.000000E+00
-0.500000E+01  0.000000E+00  0.000000E+00
-0.500000E+01  0.000000E+00  0.000000E+00
-0.500000E+01  0.000000E+00  0.000000E+00
-0.500000E+01  0.000000E+00  0.000000E+00
-0.500000E+01  0.000000E+00  0.000000E+00
-0.500000E+01  0.000000E+00  0.000000E+00
-0.500000E+01  0.000000E+00  0.000000E+00
-0.500000E+01  0.000000E+00  0.000000E+00
-0.500000E+01  0.000000E+00  0.000000E+00
-0.500000E+01  0.000000E+00  0.000000E+00
-0.500000E+01  0.000000E+00  0.000000E+00
-0.500000E+01  0.000000E+00  0.000000E+00
-0.500000E+01  0.000000E+00  0.000000E+00
-0.500000E+01  0.000000E+00  0.000000E+00
-0.500000E+01  0.000000E+00  0.000000E+00
-0.500000E+01  0.000000E+00  0.000000E+00
-0.500000E+01  0.000000E+00  0.000000E+00
-0.500000E+01  0.000000E+00  0.000000E+00
-0.500000E+01  0.000000E+00  0.000000E+00
-0.500000E+01  0.000000E+00  0.000000E+00
-0.500000E+01  0.000000E+00  0.000000E+00
-0.500000E+01  0.000000E+00  0.000000E+00
-0.500000E+01  0.000000E+00  0.000000E+00
-0.500000E+01  0.000000E+00  0.000000E+00
-0.500000E+01  0.000000E+00  0.000000E+00
-0.500000E+01  0.000000E+00  0.000000E+00
-0.500000E+01  0.000000E+00  0.000000E+00
-0.500000E+01  0.000000E+00  0.000000E+00
-0.500000E+01  0.000000E+00  0.000000E+00
-0.500000E+01  0.000000E+00  0.000000E+00
-0.500000E+01  0.000000E+00  0.000000E+00
-0.500000E+01  0.000000E+00  0.000000E+00
-0.500000E+01  0.000000E+00  0.000000E+00
-0.500000E+01  0.000000E+00  0.000000E+00
-0.500000E+01  0.000000E+00  0.000000E+00
-0.500000E+01  0.000000E+00  0.000000E+00
-0.500000E+01  0.000000E+00  0.000000E+00
-0.500000E+01  0.000000E+00  0.000000E+00
-0.500000E+01  0.000000E+00  0.000000E+00
-0.500000E+01  0.000000E+00  0.000000E+00
-0.500000E+01  0.000000E+00  0.000000E+00
-0.500000E+01  0.000000E+00  0.000000E+00
-0.500000E+01  0.000000E+00  0.000000E+00
-0.500000E+01  0.000000E+00  0.000000E+00
-0.500000E+01  0.000000E+00  0.000000E+00
-0.500000E+01  0.000000E+00  0.000000E+00
-0.500000E+01  0.000000E+00  0.000000E+00
-0.500000E+01  0.000000E+00  0.000000E+00
-0.500000E+01  0.000000E+00  0.000000E+00
-0.500000E+01  0.000000E+00  0.000000E+00
-0.500000E+01  0.000000E+00  0.000000E+00
-0.500000E+01  0.000000E+00  0.000000E+00
-0.500000E+01  0.000000E+00  0.000000E+00
-0.500000E+01  0.000000E+00  0.000000E+00
-0.500000E+01  0.000000E+00  0.000000E+00
-0.500000E+01  0.000000E+00  0.000000E+00
-0.500000E+01  0.000000E+00  0.000000E+00
-0.500000E+01  0.000000E+00  0.000000E+00
-0.500000E+01  0.000000E+00  0.000000E+00
-0.500000E+01  0.000000E+00  0.000000E+00
-0.500000E+01  0.000000E+00  0.000000E+00
-0.500000E+01  0.000000E+00  0.000000E+00
-0.500000E+01  0.000000E+00  0.000000E+00
-0.500000E+01  0.000000E+00  0.000000E+00
-0.500000E+01  0.000000E+00  0.000000E+00
-0.500000E+01  0.000000E+00  0.000000E+00
-0.500000E+01  0.000000E+00  0.000000E+00
-0.500000E+01  0.000000E+00  0.000000E+00
-0.500000E+01  0.000000E+00  0.000000E+00
-0.500000E+01  0.000000E+00  0.000000E+00
-0.500000E+01  0.000000E+00  0.000000E+00
-0.500000E+01  0.000000E+00  0.000000E+00
-0.500000E+01  0.000000E+00  0.000000E+00
-0.500000E+01  0.000000E+00  0.000000E+00
-0.500000E+01  0.000000E+00  0.000000E+00
-0.500000E+01  0.000000E+00  0.000000E+00
-0.500000E+01  0.000000E+00  0.000000E+00
-0.500000E+01  0.000000E+00  0.000000E+00
-0.500000E+01  0.000000E+00  0.000000E+00
-0.500000E+01  0.000000E+00  0.000000E+00
-0.500000E+01  0.000000E+00  0.000000E+00
-0.500000E+01  0.000000E+00  0.000000E+00
-0.500000E+01  0.000000E+00  0.000000E+00
-0.500000E+01  0.000000E+00  0.000000E+00
-0.500000E+01  0.000000E+00  0.000000E+00
-0.500000E+01  0.000000E+00  0.000000E+00
-0.500000E+01  0.000000E+00  0.000000E+00
-0.500000E+01  0.000000E+00  0.000000E+00
